solid OpenSCAD_Model
  facet normal -1 0 0
    outer loop
      vertex 0 0 0
      vertex 0 25 800
      vertex 0 25 0
    endloop
  endfacet
  facet normal -1 -0 0
    outer loop
      vertex 0 25 800
      vertex 0 0 0
      vertex 0 0 800
    endloop
  endfacet
  facet normal 0 0 -1
    outer loop
      vertex 0 25 800
      vertex 25 500 800
      vertex 25 25 800
    endloop
  endfacet
  facet normal -0 0 -1
    outer loop
      vertex 25 500 800
      vertex 0 25 800
      vertex 0 500 800
    endloop
  endfacet
  facet normal 0 0 -1
    outer loop
      vertex 500 25 800
      vertex 525 500 800
      vertex 525 25 800
    endloop
  endfacet
  facet normal -0 0 -1
    outer loop
      vertex 525 500 800
      vertex 500 25 800
      vertex 500 500 800
    endloop
  endfacet
  facet normal 0 0 -1
    outer loop
      vertex 525 25 800
      vertex 550 -50 800
      vertex 525 0 800
    endloop
  endfacet
  facet normal 0 0 -1
    outer loop
      vertex 550 -50 800
      vertex 500 0 800
      vertex 525 0 800
    endloop
  endfacet
  facet normal 0 0 -1
    outer loop
      vertex 25 25 800
      vertex 500 25 800
      vertex 500 0 800
    endloop
  endfacet
  facet normal 0 0 -1
    outer loop
      vertex 500 25 800
      vertex 25 25 800
      vertex 500 500 800
    endloop
  endfacet
  facet normal 0 0 -1
    outer loop
      vertex 25 25 800
      vertex 500 0 800
      vertex 25 0 800
    endloop
  endfacet
  facet normal 0 0 -1
    outer loop
      vertex 550 -50 800
      vertex 25 0 800
      vertex 500 0 800
    endloop
  endfacet
  facet normal 0 0 -1
    outer loop
      vertex -50 -50 800
      vertex 25 0 800
      vertex 550 -50 800
    endloop
  endfacet
  facet normal 0 0 -1
    outer loop
      vertex -50 -50 800
      vertex 0 25 800
      vertex 0 0 800
    endloop
  endfacet
  facet normal 0 0 -1
    outer loop
      vertex 0 25 800
      vertex -50 550 800
      vertex 0 500 800
    endloop
  endfacet
  facet normal -0 0 -1
    outer loop
      vertex 0 25 800
      vertex -50 -50 800
      vertex -50 550 800
    endloop
  endfacet
  facet normal -0 0 -1
    outer loop
      vertex 25 0 800
      vertex -50 -50 800
      vertex 0 0 800
    endloop
  endfacet
  facet normal 0 0 -1
    outer loop
      vertex 550 -50 800
      vertex 525 25 800
      vertex 550 550 800
    endloop
  endfacet
  facet normal 0 0 -1
    outer loop
      vertex 525 500 800
      vertex 550 550 800
      vertex 525 25 800
    endloop
  endfacet
  facet normal 0 0 -1
    outer loop
      vertex 525 525 800
      vertex 550 550 800
      vertex 525 500 800
    endloop
  endfacet
  facet normal 0 0 -1
    outer loop
      vertex 500 525 800
      vertex 550 550 800
      vertex 525 525 800
    endloop
  endfacet
  facet normal 0 0 -1
    outer loop
      vertex 25 500 800
      vertex 500 500 800
      vertex 25 25 800
    endloop
  endfacet
  facet normal 0 0 -1
    outer loop
      vertex 500 500 800
      vertex 25 500 800
      vertex 500 525 800
    endloop
  endfacet
  facet normal 0 0 -1
    outer loop
      vertex 25 525 800
      vertex 500 525 800
      vertex 25 500 800
    endloop
  endfacet
  facet normal 0 0 -1
    outer loop
      vertex 500 525 800
      vertex 25 525 800
      vertex 550 550 800
    endloop
  endfacet
  facet normal 0 0 -1
    outer loop
      vertex -50 550 800
      vertex 25 525 800
      vertex 0 525 800
    endloop
  endfacet
  facet normal 0 0 -1
    outer loop
      vertex 25 525 800
      vertex -50 550 800
      vertex 550 550 800
    endloop
  endfacet
  facet normal 0 0 -1
    outer loop
      vertex 0 500 800
      vertex -50 550 800
      vertex 0 525 800
    endloop
  endfacet
  facet normal 1 -0 0
    outer loop
      vertex 25 0 800
      vertex 25 25 0
      vertex 25 25 800
    endloop
  endfacet
  facet normal 1 0 0
    outer loop
      vertex 25 25 0
      vertex 25 0 800
      vertex 25 0 0
    endloop
  endfacet
  facet normal 0 1 -0
    outer loop
      vertex 25 25 0
      vertex 0 25 800
      vertex 25 25 800
    endloop
  endfacet
  facet normal 0 1 0
    outer loop
      vertex 0 25 800
      vertex 25 25 0
      vertex 0 25 0
    endloop
  endfacet
  facet normal 0 0 -1
    outer loop
      vertex 0 0 0
      vertex 25 25 0
      vertex 25 0 0
    endloop
  endfacet
  facet normal -0 0 -1
    outer loop
      vertex 25 25 0
      vertex 0 0 0
      vertex 0 25 0
    endloop
  endfacet
  facet normal 0 -1 0
    outer loop
      vertex 0 0 0
      vertex 25 0 800
      vertex 0 0 800
    endloop
  endfacet
  facet normal 0 -1 -0
    outer loop
      vertex 25 0 800
      vertex 0 0 0
      vertex 25 0 0
    endloop
  endfacet
  facet normal -1 0 0
    outer loop
      vertex 0 500 0
      vertex 0 525 800
      vertex 0 525 0
    endloop
  endfacet
  facet normal -1 -0 0
    outer loop
      vertex 0 525 800
      vertex 0 500 0
      vertex 0 500 800
    endloop
  endfacet
  facet normal 1 -0 0
    outer loop
      vertex 25 500 800
      vertex 25 525 0
      vertex 25 525 800
    endloop
  endfacet
  facet normal 1 0 0
    outer loop
      vertex 25 525 0
      vertex 25 500 800
      vertex 25 500 0
    endloop
  endfacet
  facet normal 0 0 -1
    outer loop
      vertex 0 500 0
      vertex 25 525 0
      vertex 25 500 0
    endloop
  endfacet
  facet normal -0 0 -1
    outer loop
      vertex 25 525 0
      vertex 0 500 0
      vertex 0 525 0
    endloop
  endfacet
  facet normal 0 -1 0
    outer loop
      vertex 0 500 0
      vertex 25 500 800
      vertex 0 500 800
    endloop
  endfacet
  facet normal 0 -1 -0
    outer loop
      vertex 25 500 800
      vertex 0 500 0
      vertex 25 500 0
    endloop
  endfacet
  facet normal 0 1 -0
    outer loop
      vertex 25 525 0
      vertex 0 525 800
      vertex 25 525 800
    endloop
  endfacet
  facet normal 0 1 0
    outer loop
      vertex 0 525 800
      vertex 25 525 0
      vertex 0 525 0
    endloop
  endfacet
  facet normal -1 0 0
    outer loop
      vertex 500 0 0
      vertex 500 25 800
      vertex 500 25 0
    endloop
  endfacet
  facet normal -1 -0 0
    outer loop
      vertex 500 25 800
      vertex 500 0 0
      vertex 500 0 800
    endloop
  endfacet
  facet normal 1 -0 0
    outer loop
      vertex 525 0 800
      vertex 525 25 0
      vertex 525 25 800
    endloop
  endfacet
  facet normal 1 0 0
    outer loop
      vertex 525 25 0
      vertex 525 0 800
      vertex 525 0 0
    endloop
  endfacet
  facet normal 0 0 -1
    outer loop
      vertex 500 0 0
      vertex 525 25 0
      vertex 525 0 0
    endloop
  endfacet
  facet normal -0 0 -1
    outer loop
      vertex 525 25 0
      vertex 500 0 0
      vertex 500 25 0
    endloop
  endfacet
  facet normal 0 -1 0
    outer loop
      vertex 500 0 0
      vertex 525 0 800
      vertex 500 0 800
    endloop
  endfacet
  facet normal 0 -1 -0
    outer loop
      vertex 525 0 800
      vertex 500 0 0
      vertex 525 0 0
    endloop
  endfacet
  facet normal 0 1 -0
    outer loop
      vertex 525 25 0
      vertex 500 25 800
      vertex 525 25 800
    endloop
  endfacet
  facet normal 0 1 0
    outer loop
      vertex 500 25 800
      vertex 525 25 0
      vertex 500 25 0
    endloop
  endfacet
  facet normal -1 0 0
    outer loop
      vertex 500 500 0
      vertex 500 525 800
      vertex 500 525 0
    endloop
  endfacet
  facet normal -1 -0 0
    outer loop
      vertex 500 525 800
      vertex 500 500 0
      vertex 500 500 800
    endloop
  endfacet
  facet normal 1 -0 0
    outer loop
      vertex 525 500 800
      vertex 525 525 0
      vertex 525 525 800
    endloop
  endfacet
  facet normal 1 0 0
    outer loop
      vertex 525 525 0
      vertex 525 500 800
      vertex 525 500 0
    endloop
  endfacet
  facet normal 0 0 -1
    outer loop
      vertex 500 500 0
      vertex 525 525 0
      vertex 525 500 0
    endloop
  endfacet
  facet normal -0 0 -1
    outer loop
      vertex 525 525 0
      vertex 500 500 0
      vertex 500 525 0
    endloop
  endfacet
  facet normal 0 -1 0
    outer loop
      vertex 500 500 0
      vertex 525 500 800
      vertex 500 500 800
    endloop
  endfacet
  facet normal 0 -1 -0
    outer loop
      vertex 525 500 800
      vertex 500 500 0
      vertex 525 500 0
    endloop
  endfacet
  facet normal 0 1 -0
    outer loop
      vertex 525 525 0
      vertex 500 525 800
      vertex 525 525 800
    endloop
  endfacet
  facet normal 0 1 0
    outer loop
      vertex 500 525 800
      vertex 525 525 0
      vertex 500 525 0
    endloop
  endfacet
  facet normal -1 0 0
    outer loop
      vertex -50 -50 800
      vertex -50 550 825
      vertex -50 550 800
    endloop
  endfacet
  facet normal -1 -0 0
    outer loop
      vertex -50 550 825
      vertex -50 -50 800
      vertex -50 -50 825
    endloop
  endfacet
  facet normal -0 0 1
    outer loop
      vertex -50 550 825
      vertex 550 -50 825
      vertex 550 550 825
    endloop
  endfacet
  facet normal 0 0 1
    outer loop
      vertex 550 -50 825
      vertex -50 550 825
      vertex -50 -50 825
    endloop
  endfacet
  facet normal 1 -0 0
    outer loop
      vertex 550 -50 825
      vertex 550 550 800
      vertex 550 550 825
    endloop
  endfacet
  facet normal 1 0 0
    outer loop
      vertex 550 550 800
      vertex 550 -50 825
      vertex 550 -50 800
    endloop
  endfacet
  facet normal 0 -1 0
    outer loop
      vertex -50 -50 800
      vertex 550 -50 825
      vertex -50 -50 825
    endloop
  endfacet
  facet normal 0 -1 -0
    outer loop
      vertex 550 -50 825
      vertex -50 -50 800
      vertex 550 -50 800
    endloop
  endfacet
  facet normal 0 1 -0
    outer loop
      vertex 550 550 800
      vertex -50 550 825
      vertex 550 550 825
    endloop
  endfacet
  facet normal 0 1 0
    outer loop
      vertex -50 550 825
      vertex 550 550 800
      vertex -50 550 800
    endloop
  endfacet
endsolid OpenSCAD_Model
